<svg width="116" height="116" viewBox="0 0 116 116" fill="none" xmlns="http://www.w3.org/2000/svg">
<path d="M57.9309 0C65.9499 0 73.4851 1.52086 80.5363 4.56257C87.5876 7.60429 93.7402 11.7521 98.994 17.006C104.248 22.2598 108.396 28.3894 111.437 35.3945C114.479 42.3997 116 49.9118 116 57.9309C116 65.9499 114.479 73.4851 111.437 80.5363C108.396 87.5876 104.248 93.7402 98.994 98.994C93.7402 104.248 87.5876 108.396 80.5363 111.437C73.4851 114.479 65.9499 116 57.9309 116C49.9118 116 42.3997 114.479 35.3945 111.437C28.3894 108.396 22.2598 104.248 17.006 98.994C11.7521 93.7402 7.60429 87.5876 4.56257 80.5363C1.52086 73.4851 0 65.9499 0 57.9309C0 49.9118 1.52086 42.3997 4.56257 35.3945C7.60429 28.3894 11.7521 22.2598 17.006 17.006C22.2598 11.7521 28.3894 7.60429 35.3945 4.56257C42.3997 1.52086 49.9118 0 57.9309 0ZM79.7759 25.3015H67.4708C65.0743 25.3015 62.8621 25.7163 60.8343 26.5459C58.8065 27.3754 57.0322 28.4815 55.5113 29.8641C53.9905 31.2467 52.8153 32.8137 51.9857 34.565C51.1561 36.3162 50.7414 38.0675 50.7414 39.8188V47.1466H39.8188V61.5256H50.7414V90.5602H65.2586V61.5256H76.0429V47.1466H65.2586V43.4136C65.2586 42.3075 65.6965 41.4319 66.5721 40.7866C67.4478 40.1414 68.2082 39.8188 68.8534 39.8188H79.7759V25.3015Z" fill="white"/>
</svg>
