<svg width="116" height="116" viewBox="0 0 116 116" fill="none" xmlns="http://www.w3.org/2000/svg">
<path d="M57.9307 0C65.9689 0 73.499 1.52449 80.5209 4.57348C87.5428 7.62246 93.687 11.7571 98.9534 16.9773C104.22 22.1975 108.378 28.3186 111.427 35.3405C114.476 42.3624 116 49.8925 116 57.9307C116 65.9689 114.476 73.499 111.427 80.5209C108.378 87.5428 104.22 93.687 98.9534 98.9534C93.687 104.22 87.5428 108.378 80.5209 111.427C73.499 114.476 65.9689 116 57.9307 116C49.8925 116 42.3624 114.476 35.3405 111.427C28.3186 108.378 22.1975 104.22 16.9773 98.9534C11.7571 93.687 7.62246 87.5428 4.57348 80.5209C1.52449 73.499 0 65.9689 0 57.9307C0 49.8925 1.52449 42.3624 4.57348 35.3405C7.62246 28.3186 11.7571 22.1975 16.9773 16.9773C22.1975 11.7571 28.3186 7.62246 35.3405 4.57348C42.3624 1.52449 49.8925 0 57.9307 0ZM39.914 43.5173H25.362V90.638H39.914V43.5173ZM32.5687 39.7754C34.6014 39.7754 36.3337 39.0824 37.7658 37.6965C39.1979 36.3106 39.914 34.6014 39.914 32.5687C39.914 30.536 39.1979 28.8268 37.7658 27.4409C36.3337 26.055 34.6014 25.362 32.5687 25.362C30.536 25.362 28.8268 26.055 27.4409 27.4409C26.055 28.8268 25.362 30.536 25.362 32.5687C25.362 34.6014 26.055 36.3106 27.4409 37.6965C28.8268 39.0824 30.536 39.7754 32.5687 39.7754ZM90.638 63.3357C90.638 60.0096 89.7141 56.7527 87.8662 53.5651C86.0183 50.3775 83.6161 47.9522 80.6595 46.2891C77.9801 44.8108 74.8618 44.0255 71.3047 43.9331C67.7475 43.8407 64.4906 44.4413 61.534 45.7348V43.5173H47.1207V90.638H61.534V61.8112L67.632 58.9008C68.3712 58.5313 69.3644 58.3465 70.6117 58.3465C71.859 58.3465 72.8522 58.5775 73.5914 59.0394C74.1458 59.3166 74.7001 59.9172 75.2545 60.8411C75.8088 61.765 76.086 62.5966 76.086 63.3357V90.638H90.638V63.3357Z" fill="white"/>
</svg>
