<svg width="116" height="116" viewBox="0 0 116 116" fill="none" xmlns="http://www.w3.org/2000/svg">
<path d="M57.3763 70.8196C55.6209 70.8196 53.9809 70.4962 52.4564 69.8495C50.9319 69.2027 49.5922 68.3019 48.4373 67.1469C47.2824 65.992 46.3815 64.6292 45.7348 63.0585C45.088 61.4879 44.7646 59.8248 44.7646 58.0693C44.7646 56.3138 45.088 54.6738 45.7348 53.1493C46.3815 51.6249 47.2824 50.2851 48.4373 49.1302C49.5922 47.9753 50.9319 47.0745 52.4564 46.4277C53.9809 45.781 55.6209 45.4576 57.3763 45.4576C60.8873 45.4576 63.867 46.6818 66.3154 49.1302C68.7638 51.5787 69.9881 54.5583 69.9881 58.0693C69.9881 59.8248 69.6647 61.4879 69.0179 63.0585C68.3712 64.6292 67.4703 65.992 66.3154 67.1469C65.1605 68.3019 63.8208 69.2027 62.2963 69.8495C60.7718 70.4962 59.1318 70.8196 57.3763 70.8196ZM77.6105 58.0693C77.6105 57.2378 77.5643 56.3831 77.4719 55.5054C77.3795 54.6276 77.2409 53.8192 77.0562 53.08H82.7383V80.9367C82.7383 81.6758 82.5074 82.2764 82.0454 82.7383C81.5834 83.2003 80.9829 83.4313 80.2437 83.4313H34.509C33.7698 83.4313 33.1693 83.2003 32.7073 82.7383C32.2453 82.2764 32.0143 81.6758 32.0143 80.9367V53.08H37.6965C37.5117 53.8192 37.3732 54.6276 37.2808 55.5054C37.1884 56.3831 37.1422 57.2378 37.1422 58.0693C37.1422 60.8411 37.6734 63.4743 38.736 65.9689C39.7985 68.4636 41.2306 70.6348 43.0323 72.4827C44.8339 74.3305 46.9821 75.7857 49.4767 76.8483C51.9713 77.9108 54.6045 78.4421 57.3763 78.4421C60.1481 78.4421 62.7814 77.9108 65.276 76.8483C67.7706 75.7857 69.9188 74.3305 71.7204 72.4827C73.5221 70.6348 74.9542 68.4636 76.0167 65.9689C77.0793 63.4743 77.6105 60.8411 77.6105 58.0693ZM57.9307 0C65.9689 0 73.499 1.52449 80.5209 4.57348C87.5428 7.62246 93.687 11.7571 98.9534 16.9773C104.22 22.1975 108.378 28.3186 111.427 35.3405C114.476 42.3624 116 49.8925 116 57.9307C116 65.9689 114.476 73.499 111.427 80.5209C108.378 87.5428 104.22 93.687 98.9534 98.9534C93.687 104.22 87.5428 108.378 80.5209 111.427C73.499 114.476 65.9689 116 57.9307 116C49.8925 116 42.3624 114.476 35.3405 111.427C28.3186 108.378 22.1975 104.22 16.9773 98.9534C11.7571 93.687 7.62246 87.5428 4.57348 80.5209C1.52449 73.499 0 65.9689 0 57.9307C0 49.8925 1.52449 42.3624 4.57348 35.3405C7.62246 28.3186 11.7571 22.1975 16.9773 16.9773C22.1975 11.7571 28.3186 7.62246 35.3405 4.57348C42.3624 1.52449 49.8925 0 57.9307 0ZM90.3608 32.7073C90.3608 30.5822 89.6217 28.7806 88.1434 27.3023C86.6651 25.824 84.8634 25.0848 82.7383 25.0848H32.0143C29.8893 25.0848 28.0876 25.824 26.6093 27.3023C25.131 28.7806 24.3919 30.5822 24.3919 32.7073V83.4313C24.3919 85.5564 25.131 87.358 26.6093 88.8363C28.0876 90.3146 29.8893 91.0538 32.0143 91.0538H82.7383C84.8634 91.0538 86.6651 90.3146 88.1434 88.8363C89.6217 87.358 90.3608 85.5564 90.3608 83.4313V32.7073ZM80.2437 32.7073C80.9829 32.7073 81.5834 32.9614 82.0454 33.4695C82.5074 33.9777 82.7383 34.6014 82.7383 35.3405V42.963C82.7383 43.7021 82.5074 44.3027 82.0454 44.7646C81.5834 45.2266 80.9829 45.4576 80.2437 45.4576H72.6213C71.8821 45.4576 71.2585 45.2266 70.7503 44.7646C70.2421 44.3027 69.9881 43.7021 69.9881 42.963V35.3405C69.9881 34.6014 70.2421 33.9777 70.7503 33.4695C71.2585 32.9614 71.8821 32.7073 72.6213 32.7073H80.2437Z" fill="white"/>
</svg>
